<svg xmlns="http://www.w3.org/2000/svg" xmlns:xlink="http://www.w3.org/1999/xlink"><symbol fill="none" id="sprite-download" viewBox="0 0 20 20"><path stroke="currentColor" stroke-linecap="round" stroke-linejoin="round" stroke-width="2" d="M17.5 12.5v1c0 1.4 0 2.1-.273 2.635a2.5 2.5 0 0 1-1.092 1.092c-.535.273-1.235.273-2.635.273h-7c-1.4 0-2.1 0-2.635-.273a2.5 2.5 0 0 1-1.093-1.092C2.5 15.6 2.5 14.9 2.5 13.5v-1m11.667-4.167L10 12.5m0 0L5.833 8.333M10 12.5v-10"/></symbol><use xlink:href="#sprite-download" width="20" height="20" y="0"/><view id="sprite-download-view" viewBox="0 0 20 20"/><symbol fill="none" id="sprite-logo" viewBox="0 0 140 40"><path fill="#000" d="M31.53 14.212c0 4.67-2.768 8.696-6.75 10.523a7.576 7.576 0 0 0-4.667-13.415c-.056-.003-.105-.003-.16-.003s-.104 0-.16.003a2.894 2.894 0 0 0-2.734 2.89v14.471a8.685 8.685 0 0 1-8.683 8.683V14.212c0-6.393 5.185-11.577 11.577-11.577S31.529 7.82 31.529 14.212"/><path fill="#000" d="M22 16.258a2.894 2.894 0 1 0-4.094-4.093A2.894 2.894 0 0 0 22 16.258M56.426 22.82v-2.84h2.62q.76 0 1.3-.3.56-.3.86-.84.3-.56.3-1.28 0-.76-.3-1.3a1.94 1.94 0 0 0-.86-.84q-.54-.3-1.3-.3h-2.62v-2.84h2.46q1.86 0 3.18.62 1.34.62 2.04 1.76.72 1.14.72 2.74v.32q0 1.56-.72 2.72-.7 1.14-2.04 1.76-1.32.62-3.18.62zM53.546 27V12.28h3.28V27zm17.643.38q-1.4 0-2.48-.48a5.3 5.3 0 0 1-1.78-1.28 6.2 6.2 0 0 1-1.08-1.82 6.2 6.2 0 0 1-.36-2.08v-.4q0-1.1.36-2.1a5.8 5.8 0 0 1 1.08-1.82 4.9 4.9 0 0 1 1.74-1.26q1.06-.48 2.4-.48 1.76 0 2.96.8a5.13 5.13 0 0 1 1.86 2.06q.64 1.26.64 2.76v1.08h-9.7v-1.82h7.76l-1.04.84q0-.98-.28-1.68t-.84-1.06q-.54-.38-1.36-.38-.84 0-1.42.38t-.88 1.12q-.3.72-.3 1.78 0 .98.28 1.72.28.72.88 1.12t1.56.4q.88 0 1.44-.34t.76-.84h2.94a4.6 4.6 0 0 1-.94 1.96 4.8 4.8 0 0 1-1.76 1.34q-1.06.48-2.44.48m7.06-.38V16.04h2.54v4.7h-.06q0-2.32.98-3.58 1-1.26 2.88-1.26h.42v2.76h-.8q-1.32 0-2.04.72-.72.7-.72 2.04V27zm12.178.34q-2.34 0-3.66-.96t-1.4-2.7h2.84q.08.52.62.94.56.4 1.66.4.84 0 1.38-.28.56-.3.56-.84 0-.48-.42-.76-.42-.3-1.5-.42l-.86-.08q-1.98-.2-2.98-1.1-.98-.9-.98-2.3 0-1.16.58-1.94t1.6-1.18q1.04-.4 2.36-.4 2.121 0 3.42.94 1.3.92 1.36 2.68h-2.84q-.08-.54-.56-.9-.48-.38-1.42-.38-.74 0-1.18.28t-.44.76q0 .46.38.7t1.24.34l.86.08q2.02.22 3.14 1.12t1.12 2.42q0 1.1-.6 1.92-.6.8-1.7 1.24-1.1.42-2.58.42m11.894.04q-1.44 0-2.56-.44a5.7 5.7 0 0 1-1.9-1.24 5.4 5.4 0 0 1-1.16-1.78 5.8 5.8 0 0 1-.4-2.14v-.46q0-1.14.4-2.16.42-1.04 1.2-1.82a5.7 5.7 0 0 1 1.92-1.22q1.12-.46 2.5-.46 1.419 0 2.52.46 1.12.44 1.9 1.22t1.2 1.82q.42 1.02.42 2.16v.46q0 1.12-.4 2.14a5.3 5.3 0 0 1-1.18 1.78q-.76.78-1.88 1.24-1.12.44-2.58.44m0-2.7q.939 0 1.56-.4.62-.4.94-1.12a3.7 3.7 0 0 0 .34-1.6q0-.94-.34-1.64a2.73 2.73 0 0 0-.98-1.14q-.62-.42-1.52-.42-.88 0-1.52.42a2.7 2.7 0 0 0-.98 1.14q-.32.7-.32 1.64 0 .88.32 1.6t.96 1.12 1.54.4m7.873 2.32V16.04h2.54v4.7h-.18q0-1.68.42-2.8.44-1.12 1.32-1.68t2.14-.56h.14q1.92 0 2.92 1.26 1.02 1.24 1.02 3.78V27h-3.2v-6.44q0-.88-.52-1.44t-1.4-.56q-.9 0-1.46.58-.54.56-.54 1.48V27zm19.267 0v-3.24h-.54v-3.52q0-.84-.4-1.26t-1.28-.42q-.44 0-1.16.02t-1.48.06-1.38.08v-2.7q.46-.04 1.08-.08t1.28-.06 1.24-.02q1.68 0 2.82.48 1.16.48 1.76 1.46.6.96.6 2.48V27zm-3.5.28q-1.18 0-2.08-.42a3.27 3.27 0 0 1-1.38-1.2q-.5-.8-.5-1.9 0-1.2.62-1.96.62-.78 1.74-1.14 1.12-.38 2.58-.38h2.34v1.78h-2.36q-.84 0-1.3.42-.44.4-.44 1.1 0 .66.44 1.08.46.4 1.3.4.54 0 .96-.18a1.63 1.63 0 0 0 .72-.66q.28-.46.32-1.28l.76.8q-.1 1.14-.56 1.92-.44.78-1.24 1.2-.78.42-1.92.42m8.495-.28V12.4h3.22V27zm-1.3-12.24V12.4h4.52v2.36z"/></symbol><use xlink:href="#sprite-logo" width="140" height="40" y="20"/><view id="sprite-logo-view" viewBox="0 20 140 40"/><symbol fill="none" id="sprite-more" viewBox="0 0 20 20"><path stroke="currentColor" stroke-linecap="round" stroke-linejoin="round" stroke-width="2" d="m10.833 9.167 6.834-6.834M18.333 5.667v-4h-4M9.167 1.667H7.5c-4.167 0-5.833 1.666-5.833 5.833v5c0 4.167 1.666 5.833 5.833 5.833h5c4.167 0 5.833-1.666 5.833-5.833v-1.667"/></symbol><use xlink:href="#sprite-more" width="20" height="20" y="60"/><view id="sprite-more-view" viewBox="0 60 20 20"/><symbol id="sprite-skill1" viewBox="0 0 56 56"><path d="M49.233 25.783 30.217 6.767A3.19 3.19 0 0 0 28 5.833c-.817 0-1.633.35-2.217.934L21.7 10.85l4.783 4.783a3.2 3.2 0 0 1 1.517-.35c1.983 0 3.5 1.517 3.5 3.5a3.2 3.2 0 0 1-.35 1.517l4.667 4.667a3.2 3.2 0 0 1 1.516-.35c1.984 0 3.5 1.516 3.5 3.5s-1.516 3.5-3.5 3.5-3.5-1.517-3.5-3.5c0-.584.117-1.05.35-1.517l-4.666-4.667c-.117 0-.234.117-.35.117v12.133c1.4.467 2.333 1.75 2.333 3.267 0 1.983-1.517 3.5-3.5 3.5s-3.5-1.517-3.5-3.5c0-1.517.933-2.8 2.333-3.267v-12.25c-1.4-.466-2.333-1.75-2.333-3.266 0-.584.117-1.05.35-1.517l-4.783-4.783-13.3 13.416A3.19 3.19 0 0 0 5.833 28c0 .817.35 1.633.934 2.217l19.016 19.016c.584.584 1.4.934 2.217.934s1.633-.35 2.217-.934l19.016-19.016c.584-.584.934-1.4.934-2.217s-.35-1.633-.934-2.217"/></symbol><use xlink:href="#sprite-skill1" width="56" height="56" y="80"/><view id="sprite-skill1-view" viewBox="0 80 56 56"/><symbol id="sprite-skill10" viewBox="0 0 56 56"><path d="M46.512 30.282c-1.795.01-3.349.44-4.65 1.083-.477-.951-.96-1.788-1.04-2.41-.095-.725-.205-1.16-.09-2.024s.615-2.09.608-2.181c-.007-.093-.112-.532-1.147-.54s-1.92.199-2.024.472-.304.888-.427 1.53c-.181.938-2.066 4.285-3.136 6.035-.35-.684-.648-1.286-.71-1.762-.094-.726-.204-1.16-.09-2.024.115-.865.615-2.09.608-2.182s-.112-.532-1.147-.54c-1.034-.007-1.92.2-2.024.473-.103.273-.215.91-.427 1.529-.212.617-2.717 6.2-3.374 7.648a44 44 0 0 1-.83 1.733l-.002-.002-.033.072c-.177.344-.28.535-.28.535l.003.007c-.14.253-.29.487-.363.487-.051 0-.155-.673.022-1.597.374-1.937 1.269-4.956 1.26-5.061-.004-.054.167-.58-.584-.855-.73-.267-.99.178-1.057.18-.064 0-.112.157-.112.157s.813-3.396-1.552-3.396c-1.479 0-3.528 1.618-4.537 3.084-.637.348-2 1.093-3.446 1.887l-1.66.913-.111-.12c-2.869-3.061-8.17-5.225-7.946-9.34.081-1.496.602-5.434 10.188-10.21 7.853-3.914 14.14-2.837 15.226-.451 1.552 3.41-3.36 9.746-11.515 10.661-3.107.349-4.743-.856-5.15-1.304-.429-.473-.493-.494-.653-.405-.26.145-.095.561 0 .81.244.633 1.243 1.756 2.946 2.317 1.5.492 5.148.761 9.559-.945 4.942-1.912 8.8-7.23 7.666-11.673-1.153-4.52-8.647-6.006-15.74-3.486-4.228 1.5-8.797 3.855-12.084 6.928-3.907 3.654-4.53 6.835-4.273 8.164.912 4.723 7.42 7.798 10.027 10.077l-.36.198c-1.306.646-6.268 3.243-7.51 5.986-1.407 3.111.225 5.344 1.305 5.645 3.347.931 6.782-.744 8.629-3.497 1.845-2.752 1.62-6.337.773-7.973l-.032-.06 1.022-.604c.665-.39 1.318-.755 1.884-1.063-.317.868-.55 1.91-.67 3.414-.142 1.766.582 4.05 1.53 4.948.417.395.919.405 1.236.405 1.103 0 1.606-.917 2.16-2.002.679-1.33 1.282-2.88 1.282-2.88s-.756 4.184 1.304 4.184c.752 0 1.507-.974 1.844-1.47v.008l.06-.097a5 5 0 0 0 .122-.195q0 0 .003-.022c.302-.524.972-1.718 1.975-3.689 1.298-2.546 2.541-5.735 2.541-5.735s.116.78.495 2.07c.223.758.697 1.597 1.071 2.402-.301.417-.485.656-.485.656q-.001 0 .004.013c-.24.32-.51.664-.792 1-1.024 1.22-2.243 2.612-2.407 3.014-.192.473-.147.821.226 1.102.271.204.754.237 1.26.203.92-.062 1.566-.29 1.886-.43a6.3 6.3 0 0 0 1.622-.852c1.004-.739 1.61-1.794 1.551-3.194-.032-.771-.277-1.536-.589-2.257l.274-.396c1.584-2.315 2.812-4.858 2.812-4.858s.116.779.495 2.07c.191.651.57 1.364.91 2.062-1.488 1.21-2.41 2.616-2.731 3.537-.593 1.706-.129 2.478.742 2.654.394.08.951-.101 1.37-.278a6.3 6.3 0 0 0 1.734-.892c1.005-.738 1.97-1.772 1.912-3.17-.027-.638-.2-1.27-.434-1.877 1.262-.526 2.896-.818 4.977-.575 4.465.522 5.34 3.309 5.173 4.475-.168 1.167-1.104 1.809-1.417 2.002-.313.194-.409.262-.383.405.039.21.183.202.45.157.368-.062 2.344-.949 2.43-3.102.105-2.737-2.514-5.74-7.154-5.716M12.097 41.883c-1.479 1.614-3.544 2.223-4.43 1.71-.957-.555-.578-2.93 1.236-4.643 1.106-1.043 2.534-2.004 3.481-2.596l.917-.55.1-.056v-.002l.228-.138c.662 2.437.021 4.583-1.532 6.275m10.774-7.323c-.514 1.255-1.592 4.468-2.249 4.296-.563-.148-.906-2.59-.112-4.994.4-1.21 1.253-2.655 1.755-3.216.807-.903 1.696-1.198 1.912-.832.274.467-.982 3.959-1.306 4.746m8.901 4.247c-.218.114-.419.185-.511.13-.069-.04.09-.19.09-.19s1.113-1.199 1.552-1.744c.255-.317.55-.694.872-1.114q.004.063.004.125c-.003 1.435-1.389 2.403-2.007 2.793m6.857-1.564c-.164-.115-.136-.49.4-1.657.21-.459.69-1.23 1.523-1.967.097.303.156.593.154.864-.01 1.806-1.298 2.48-2.078 2.76"/></symbol><use xlink:href="#sprite-skill10" width="56" height="56" y="136"/><view id="sprite-skill10-view" viewBox="0 136 56 56"/><symbol id="sprite-skill2" viewBox="0 0 57 56"><path fill="var(--color-1)" d="M.5 56V0h56v56z"/><path fill="var(--color-2)" d="M37.115 41.918c1.076 1.748 2.246 3.423 4.724 3.423 2.081 0 3.173-1.034 3.173-2.465 0-1.713-1.13-2.321-3.419-3.318l-1.255-.535c-3.623-1.537-6.033-3.463-6.033-7.53 0-3.75 2.87-6.602 7.355-6.602 3.194 0 5.488 1.106 7.143 4.002l-3.91 2.5c-.86-1.537-1.791-2.142-3.233-2.142-1.472 0-2.403.928-2.403 2.142 0 1.5.933 2.106 3.087 3.035l1.256.535c4.27 1.818 6.678 3.675 6.678 7.85 0 4.5-3.553 6.965-8.322 6.965-4.666 0-7.315-2.341-8.79-5.24zm-18.023.127c.787 1.41 1.983 2.494 3.704 2.494 1.646 0 2.593-.65 2.593-3.178V24.889h5.185v17.268c0 5.238-3.038 7.62-7.475 7.62-4.009 0-6.902-2.715-8.081-5.238z"/></symbol><use xlink:href="#sprite-skill2" width="57" height="56" y="192"/><view id="sprite-skill2-view" viewBox="0 192 57 56"/><symbol id="sprite-skill3" viewBox="0 0 56 56"><path d="M46.512 30.282c-1.795.01-3.349.44-4.65 1.083-.477-.951-.96-1.788-1.04-2.41-.095-.725-.205-1.16-.09-2.024s.615-2.09.608-2.181c-.007-.093-.112-.532-1.147-.54s-1.92.199-2.024.472-.304.888-.427 1.53c-.181.938-2.066 4.285-3.136 6.035-.35-.684-.648-1.286-.71-1.762-.094-.726-.204-1.16-.09-2.024.115-.865.615-2.09.608-2.182s-.112-.532-1.147-.54c-1.034-.007-1.92.2-2.024.473-.103.273-.215.91-.427 1.529-.212.617-2.717 6.2-3.374 7.648a44 44 0 0 1-.83 1.733l-.002-.002-.033.072c-.177.344-.28.535-.28.535l.003.007c-.14.253-.29.487-.363.487-.051 0-.155-.673.022-1.597.374-1.937 1.269-4.956 1.26-5.061-.004-.054.167-.58-.584-.855-.73-.267-.99.178-1.057.18-.064 0-.112.157-.112.157s.813-3.396-1.552-3.396c-1.479 0-3.528 1.618-4.537 3.084-.637.348-2 1.093-3.446 1.887l-1.66.913-.111-.12c-2.869-3.061-8.17-5.225-7.946-9.34.081-1.496.602-5.434 10.188-10.21 7.853-3.914 14.14-2.837 15.226-.451 1.552 3.41-3.36 9.746-11.515 10.661-3.107.349-4.743-.856-5.15-1.304-.429-.473-.493-.494-.653-.405-.26.145-.095.561 0 .81.244.633 1.243 1.756 2.946 2.317 1.5.492 5.148.761 9.559-.945 4.942-1.912 8.8-7.23 7.666-11.673-1.153-4.52-8.647-6.006-15.74-3.486-4.228 1.5-8.797 3.855-12.084 6.928-3.907 3.654-4.53 6.835-4.273 8.164.912 4.723 7.42 7.798 10.027 10.077l-.36.198c-1.306.646-6.268 3.243-7.51 5.986-1.407 3.111.225 5.344 1.305 5.645 3.347.931 6.782-.744 8.629-3.497 1.845-2.752 1.62-6.337.773-7.973l-.032-.06 1.022-.604c.665-.39 1.318-.755 1.884-1.063-.317.868-.55 1.91-.67 3.414-.142 1.766.582 4.05 1.53 4.948.417.395.919.405 1.236.405 1.103 0 1.606-.917 2.16-2.002.679-1.33 1.282-2.88 1.282-2.88s-.756 4.184 1.304 4.184c.752 0 1.507-.974 1.844-1.47v.008l.06-.097a5 5 0 0 0 .122-.195q0 0 .003-.022c.302-.524.972-1.718 1.975-3.689 1.298-2.546 2.541-5.735 2.541-5.735s.116.78.495 2.07c.223.758.697 1.597 1.071 2.402-.301.417-.485.656-.485.656q-.001 0 .004.013c-.24.32-.51.664-.792 1-1.024 1.22-2.243 2.612-2.407 3.014-.192.473-.147.821.226 1.102.271.204.754.237 1.26.203.92-.062 1.566-.29 1.886-.43a6.3 6.3 0 0 0 1.622-.852c1.004-.739 1.61-1.794 1.551-3.194-.032-.771-.277-1.536-.589-2.257l.274-.396c1.584-2.315 2.812-4.858 2.812-4.858s.116.779.495 2.07c.191.651.57 1.364.91 2.062-1.488 1.21-2.41 2.616-2.731 3.537-.593 1.706-.129 2.478.742 2.654.394.08.951-.101 1.37-.278a6.3 6.3 0 0 0 1.734-.892c1.005-.738 1.97-1.772 1.912-3.17-.027-.638-.2-1.27-.434-1.877 1.262-.526 2.896-.818 4.977-.575 4.465.522 5.34 3.309 5.173 4.475-.168 1.167-1.104 1.809-1.417 2.002-.313.194-.409.262-.383.405.039.21.183.202.45.157.368-.062 2.344-.949 2.43-3.102.105-2.737-2.514-5.74-7.154-5.716M12.097 41.883c-1.479 1.614-3.544 2.223-4.43 1.71-.957-.555-.578-2.93 1.236-4.643 1.106-1.043 2.534-2.004 3.481-2.596l.917-.55.1-.056v-.002l.228-.138c.662 2.437.021 4.583-1.532 6.275m10.774-7.323c-.514 1.255-1.592 4.468-2.249 4.296-.563-.148-.906-2.59-.112-4.994.4-1.21 1.253-2.655 1.755-3.216.807-.903 1.696-1.198 1.912-.832.274.467-.982 3.959-1.306 4.746m8.901 4.247c-.218.114-.419.185-.511.13-.069-.04.09-.19.09-.19s1.113-1.199 1.552-1.744c.255-.317.55-.694.872-1.114q.004.063.004.125c-.003 1.435-1.389 2.403-2.007 2.793m6.857-1.564c-.164-.115-.136-.49.4-1.657.21-.459.69-1.23 1.523-1.967.097.303.156.593.154.864-.01 1.806-1.298 2.48-2.078 2.76"/></symbol><use xlink:href="#sprite-skill3" width="56" height="56" y="248"/><view id="sprite-skill3-view" viewBox="0 248 56 56"/><symbol id="sprite-skill4" viewBox="0 0 57 56"><path fill-rule="evenodd" d="M32.955.929c-.383 0-.739.085-1.067.198.697.482 1.08 1.119 1.272 1.84.014.1.04.17.055.27.013.085.027.17.027.255.055 1.246-.315 1.401-.575 2.138a3.12 3.12 0 0 0 .192 2.789c.04.099.096.212.164.311-.52-3.582 2.366-4.12 2.9-5.238.04-.977-.739-1.629-1.355-2.082-.588-.368-1.121-.481-1.613-.481m4.349.807c-.055.326-.014.24-.027.41-.014.114-.014.255-.028.369a3 3 0 0 1-.096.34c-.027.113-.068.226-.109.34-.055.113-.096.212-.15.325-.041.057-.069.113-.11.17l-.082.127c-.068.1-.137.199-.205.283-.082.085-.15.185-.246.255v.015c-.082.07-.164.155-.26.226-.287.227-.615.396-.916.609-.096.07-.192.127-.274.212-.096.071-.178.142-.26.227-.095.085-.164.17-.246.269-.068.085-.15.184-.205.283-.069.1-.137.198-.192.297-.054.114-.095.213-.15.326-.041.113-.082.212-.11.326-.04.127-.068.24-.095.354-.014.056-.014.127-.027.184-.014.056-.014.113-.028.17 0 .113-.014.24-.014.353 0 .085 0 .17.014.255 0 .114.014.227.041.354.014.114.041.227.068.34.042.113.069.227.11.34.027.07.068.141.096.198l-3.146-1.26a33 33 0 0 0-1.587-.425l-.861-.212c-.82-.17-1.655-.297-2.49-.382-.027 0-.04-.015-.068-.015a24 24 0 0 0-2.448-.127 25.179 25.179 0 0 0-4.295.382c-.205.029-.41.071-.615.114-.424.084-.834.184-1.23.283l-.616.17c-.206.085-.397.184-.588.269l-.452.212c-.027.014-.055.014-.068.028-.137.071-.26.128-.383.198a1 1 0 0 0-.096.043c-.15.07-.3.156-.424.226-.096.043-.191.1-.273.142a1 1 0 0 1-.123.07c-.124.072-.247.142-.356.213q-.185.106-.328.213c-.096.07-.192.127-.274.198-.014.014-.027.014-.04.028a3 3 0 0 0-.26.198l-.028.029-.205.17c-.028.014-.055.042-.082.056-.069.057-.137.128-.206.184-.013.028-.04.043-.054.057-.082.085-.164.156-.246.24-.014 0-.014.015-.028.029-.082.07-.164.156-.246.24-.014.015-.014.029-.027.029-.069.07-.137.142-.205.226-.028.029-.069.057-.096.085-.069.085-.15.17-.233.255-.013.028-.04.043-.054.071-.11.113-.205.226-.315.34l-.041.042c-.219.241-.451.482-.697.694a8 8 0 0 1-.766.623c-.274.198-.534.368-.821.538q-.41.234-.862.425c-.287.127-.588.24-.889.34-.574.127-1.162.368-1.668.41-.11 0-.233.028-.342.043-.123.028-.233.056-.342.085L4 15.597c-.11.043-.22.1-.329.156-.095.07-.205.127-.3.198-.096.07-.192.156-.274.24-.096.071-.192.17-.274.256-.082.099-.164.184-.232.283-.069.113-.15.212-.205.325-.069.1-.137.213-.192.326-.054.127-.11.24-.15.368-.041.113-.082.24-.123.368-.028.113-.055.227-.069.34 0 .014-.013.028-.013.043-.028.127-.028.297-.041.382-.014.099-.028.184-.028.283 0 .057 0 .127.014.184.014.1.027.184.055.269.027.085.054.17.095.255v.014c.041.085.096.17.15.255.056.085.11.17.179.255.068.07.15.155.232.226.082.085.164.156.26.227.328.297.41.396.834.623.069.042.137.07.22.113.013 0 .027.014.04.014 0 .028 0 .043.014.071.014.113.041.227.068.34.028.127.069.24.11.34.04.085.068.17.11.254.013.029.026.057.04.071.055.114.11.213.164.312l.205.297c.069.085.15.184.233.269.082.085.164.156.26.24 0 0 .014.015.027.015.082.07.164.142.246.198.096.07.192.128.301.184.096.057.205.114.315.156.082.042.178.07.273.1.014.013.028.013.055.027.055.015.123.029.178.043-.041.764-.055 1.486.055 1.741.123.284.724-.58 1.326-1.571-.082.977-.137 2.124 0 2.463.15.354.971-.75 1.683-1.968 9.696-2.322 18.546 4.616 19.476 14.414-.178-1.53-1.997-2.38-2.832-2.167-.41 1.048-1.107 2.393-2.229 3.228a9.4 9.4 0 0 0-.137-2.831 9.3 9.3 0 0 1-1.696 3.568c-1.299.099-2.598-.553-3.282-1.53-.055-.042-.069-.127-.11-.184-.04-.099-.082-.198-.109-.297a1.2 1.2 0 0 1-.082-.297c-.014-.1-.014-.198-.014-.312v-.212c.014-.1.041-.198.069-.297.027-.1.054-.199.095-.298.055-.099.096-.198.165-.297.232-.68.232-1.232-.192-1.558a1.5 1.5 0 0 0-.26-.141c-.055-.014-.123-.043-.178-.057-.04-.014-.068-.028-.109-.042-.096-.029-.192-.057-.287-.071a1 1 0 0 0-.287-.043 2 2 0 0 0-.301-.028c-.069 0-.137.014-.206.014-.109 0-.205.015-.3.043-.096.014-.192.028-.288.056a2 2 0 0 0-.287.1c-.096.042-.178.085-.273.127-.082.043-.165.1-.26.142-3.187 2.152-1.286 7.192.889 8.65-.82.156-1.655.34-1.888.524l-.027.029c.588.368 1.204.68 1.846.948a44 44 0 0 0 2.216.68v.014q1.703.36 3.447.255c6.058-.44 11.023-5.21 11.926-11.497.027.128.055.24.082.368.041.255.096.524.123.793v.014c.027.128.041.255.055.368v.057c.014.128.027.255.027.368.014.156.027.312.027.468v.226c0 .07.014.156.014.227 0 .084-.014.17-.014.254v.199c0 .099-.013.184-.013.283 0 .056 0 .113-.014.184 0 .099-.014.198-.014.311-.013.043-.013.085-.013.128-.014.113-.028.212-.041.325 0 .043 0 .085-.014.128-.014.141-.041.269-.055.41v.029l-.082.396v.043l-.082.382c0 .014-.014.042-.014.057a4 4 0 0 1-.095.382v.042c-.041.142-.082.27-.11.397-.013.014-.013.028-.013.028q-.062.213-.123.425c-.055.142-.096.269-.151.41-.055.142-.096.284-.15.411-.055.142-.11.27-.165.41h-.013c-.055.128-.11.27-.178.397a1 1 0 0 1-.041.1c-.014.013-.014.027-.027.042a13.3 13.3 0 0 1-3.844 4.757 5 5 0 0 0-.328.24c-.027.029-.068.043-.096.071-.095.071-.191.142-.3.213l.04.085h.014l.575-.085h.013c.356-.057.712-.128 1.067-.199a2 2 0 0 0 .301-.07c.068-.015.123-.029.191-.043.096-.014.192-.042.288-.056.082-.029.164-.043.246-.071a25.3 25.3 0 0 0 3.966-1.36 22.1 22.1 0 0 1-8.493 7.179 21.8 21.8 0 0 0 4.664-.835c5.512-1.685 10.148-5.522 12.924-10.69a23 23 0 0 1-3.679 9.104 21.7 21.7 0 0 0 3.652-3.143c3.064-3.313 5.074-7.518 5.758-12.035.465 2.237.602 4.545.397 6.824 9.874-14.257.82-29.038-2.968-32.932-.014-.028-.027-.042-.027-.07-.014.014-.014.014-.014.028 0-.015 0-.015-.014-.029 0 .17-.014.34-.027.51a20 20 0 0 1-.137.949c-.068.311-.15.623-.233.934-.095.297-.205.609-.328.906-.123.283-.26.58-.41.864a10.788 10.788 0 0 1-1.053 1.572c-.205.254-.424.48-.643.707a9 9 0 0 1-.397.354l-.314.283a8 8 0 0 1-.766.553 9 9 0 0 1-.807.481c-.287.142-.575.269-.862.396a9 9 0 0 1-.889.298c-.3.085-.615.155-.916.212-.315.057-.63.085-.93.113-.219.015-.438.029-.657.029-.314 0-.629-.029-.93-.057a7 7 0 0 1-.93-.142 7 7 0 0 1-.916-.24h-.014c.301-.029.602-.057.903-.113a9.6 9.6 0 0 0 1.805-.51c.301-.114.588-.255.862-.397.287-.141.547-.297.82-.467.26-.184.52-.368.766-.566q.37-.297.698-.637c.233-.213.438-.453.643-.694q.307-.383.574-.765c.028-.042.055-.099.082-.141.137-.227.274-.453.397-.68a10 10 0 0 0 .739-1.77c.095-.297.164-.608.232-.92.055-.325.11-.637.137-.948.027-.326.054-.652.054-.963 0-.227-.013-.453-.027-.68a20 20 0 0 0-.11-.948 11 11 0 0 0-.204-.95c-.096-.296-.192-.608-.301-.905a10 10 0 0 0-.383-.878c-.15-.283-.301-.566-.465-.835a16 16 0 0 0-.547-.78c-.206-.24-.41-.48-.63-.721a9 9 0 0 0-.355-.354 25 25 0 0 0-1.901-1.388 3 3 0 0 0-.274-.141c-.451-.298-.875-.453-1.3-.595" clip-rule="evenodd"/></symbol><use xlink:href="#sprite-skill4" width="57" height="56" y="304"/><view id="sprite-skill4-view" viewBox="0 304 57 56"/><symbol id="sprite-skill5" viewBox="0 0 56 56"><path fill="var(--color-1)" fill-rule="evenodd" d="m9.855 48.654-1.52-40.45a2.465 2.465 0 0 1 2.313-2.548l26.96-1.686 2.059.697 2.677-.993 2.702-.17a2.464 2.464 0 0 1 2.62 2.461v44.073a2.465 2.465 0 0 1-2.468 2.463l-.108-.002-32.883-1.477a2.463 2.463 0 0 1-2.352-2.368" clip-rule="evenodd"/><path fill="var(--color-2)" fill-rule="evenodd" d="m42.342 3.674-4.733.294-.23 5.554a.369.369 0 0 0 .588.31l2.156-1.637 1.822 1.436a.367.367 0 0 0 .595-.301l-.196-5.655zm-3.684 18.595c-.865.674-7.324 1.132-7.324.174.138-3.657-1.499-3.817-2.41-3.817-.862 0-2.318.26-2.318 2.22 0 1.996 2.127 3.123 4.623 4.446 3.546 1.88 7.84 4.156 7.84 9.878 0 5.488-4.459 8.517-10.143 8.517-5.867 0-10.995-2.374-10.417-10.604.228-.965 7.689-.735 7.689 0-.094 3.396.68 4.395 2.636 4.395 1.502 0 2.183-.828 2.183-2.22 0-2.11-2.214-3.354-4.765-4.785-3.452-1.937-7.514-4.218-7.514-9.454 0-5.223 3.592-8.707 10.005-8.707s9.915 3.431 9.915 9.957" clip-rule="evenodd"/></symbol><use xlink:href="#sprite-skill5" width="56" height="56" y="360"/><view id="sprite-skill5-view" viewBox="0 360 56 56"/><symbol id="sprite-skill6" viewBox="0 0 56 56"><path fill-rule="evenodd" d="M32.455.929c-.383 0-.739.085-1.067.198.697.482 1.08 1.119 1.272 1.84.014.1.04.17.055.27.013.085.027.17.027.255.055 1.246-.315 1.401-.575 2.138a3.12 3.12 0 0 0 .192 2.789c.04.099.096.212.164.311-.52-3.582 2.366-4.12 2.9-5.238.04-.977-.739-1.629-1.355-2.082-.588-.368-1.121-.481-1.613-.481m4.349.807c-.055.326-.014.24-.027.41-.014.114-.014.255-.028.369a3 3 0 0 1-.096.34 3 3 0 0 1-.109.34c-.055.113-.096.212-.15.325-.041.057-.069.113-.11.17l-.082.127c-.068.1-.137.199-.205.283-.082.085-.15.185-.246.255v.015c-.082.07-.164.155-.26.226-.287.227-.615.396-.916.609-.096.07-.192.127-.274.212-.096.071-.178.142-.26.227-.096.085-.164.17-.246.269-.068.085-.15.184-.205.283-.069.1-.137.198-.192.297-.054.114-.095.213-.15.326-.041.113-.082.212-.11.326-.04.127-.068.24-.095.354-.014.056-.014.127-.028.184-.013.056-.013.113-.027.17 0 .113-.014.24-.014.353 0 .085 0 .17.014.255 0 .114.014.227.041.354.014.114.041.227.068.34.041.113.069.227.11.34.027.07.068.141.096.198l-3.146-1.26a33 33 0 0 0-1.587-.425l-.861-.212c-.82-.17-1.655-.297-2.49-.382-.027 0-.04-.015-.068-.015a24 24 0 0 0-2.448-.127 25.173 25.173 0 0 0-4.294.382c-.206.029-.41.071-.616.114-.424.084-.834.184-1.23.283l-.616.17c-.206.085-.397.184-.588.269l-.452.212c-.027.014-.055.014-.068.028-.137.071-.26.128-.383.198a1 1 0 0 0-.096.043c-.15.07-.3.156-.424.226-.096.043-.191.1-.274.142a1 1 0 0 1-.123.07c-.123.072-.246.142-.355.213a3 3 0 0 0-.328.213c-.096.07-.192.127-.274.198-.014.014-.027.014-.041.028a3 3 0 0 0-.26.198l-.027.029-.205.17c-.028.014-.055.042-.082.056-.069.057-.137.128-.206.184-.013.028-.04.043-.054.057-.082.085-.164.156-.246.24-.014 0-.014.015-.028.029-.082.07-.164.156-.246.24-.014.015-.014.029-.027.029-.069.07-.137.142-.206.226-.027.029-.068.057-.095.085a4 4 0 0 1-.233.255c-.013.028-.04.043-.054.071-.11.113-.206.226-.315.34l-.041.042a8 8 0 0 1-.698.694 8 8 0 0 1-.765.623c-.274.198-.534.368-.821.538q-.41.234-.862.425c-.287.127-.588.24-.889.34-.574.127-1.162.368-1.668.41-.11 0-.233.028-.342.043-.123.028-.233.056-.342.085l-.328.127c-.11.043-.22.1-.329.156-.095.07-.205.127-.3.198-.096.07-.192.156-.274.24-.096.071-.192.17-.274.256-.082.099-.164.184-.232.283-.069.113-.15.212-.205.325-.069.1-.137.213-.192.326-.055.127-.11.24-.15.368-.041.113-.082.24-.123.368-.028.113-.055.227-.069.34 0 .014-.013.028-.013.043-.028.127-.028.297-.041.382-.014.099-.028.184-.028.283 0 .057 0 .127.014.184.014.1.027.184.055.269.027.085.054.17.095.255v.014c.041.085.096.17.15.255.056.085.11.17.179.255.068.07.15.155.232.226.082.085.164.156.26.227.328.297.41.396.834.623.069.042.137.07.22.113.013 0 .026.014.04.014 0 .028 0 .043.014.071.014.113.04.227.068.34.028.127.069.24.11.34.04.085.068.17.11.254.013.029.026.057.04.071.055.114.11.213.164.312l.205.297c.069.085.15.184.233.269.082.085.164.156.26.24 0 0 .013.015.027.015.082.07.164.142.246.198.096.07.192.128.301.184.096.057.205.114.315.156.082.042.178.07.273.1.014.013.028.013.055.027.055.015.123.029.178.043-.041.764-.055 1.486.055 1.741.123.284.724-.58 1.326-1.571-.082.977-.137 2.124 0 2.463.15.354.971-.75 1.682-1.968 9.697-2.322 18.547 4.616 19.476 14.414-.177-1.53-1.996-2.38-2.83-2.167-.411 1.048-1.109 2.393-2.23 3.228a9.4 9.4 0 0 0-.137-2.831 9.3 9.3 0 0 1-1.696 3.568c-1.299.099-2.598-.553-3.282-1.53-.055-.042-.069-.127-.11-.184-.04-.099-.082-.198-.109-.297a1.2 1.2 0 0 1-.082-.297c-.014-.1-.014-.198-.014-.312v-.212c.014-.1.041-.198.069-.297.027-.1.054-.199.095-.298.055-.099.096-.198.165-.297.232-.68.232-1.232-.192-1.558a1.6 1.6 0 0 0-.26-.141c-.055-.014-.123-.043-.178-.057-.04-.014-.068-.028-.11-.042-.095-.029-.19-.057-.286-.071a1 1 0 0 0-.287-.043 2 2 0 0 0-.301-.028c-.069 0-.137.014-.206.014-.109 0-.205.015-.3.043-.096.014-.192.028-.288.056a2 2 0 0 0-.287.1c-.096.042-.178.085-.273.127-.082.043-.165.1-.26.142-3.187 2.152-1.286 7.192.889 8.65-.82.156-1.655.34-1.888.524l-.027.029c.588.368 1.204.68 1.846.948.876.297 1.806.566 2.216.68v.014q1.703.36 3.447.255c6.058-.44 11.023-5.21 11.926-11.497.027.128.055.24.082.368.041.255.096.524.123.793v.014c.027.128.041.255.055.368v.057c.014.128.027.255.027.368.014.156.027.312.027.468v.226c0 .07.014.156.014.227 0 .084-.014.17-.014.254v.199c0 .099-.013.184-.013.283 0 .056 0 .113-.014.184 0 .099-.014.198-.014.311-.013.043-.013.085-.013.128-.014.113-.028.212-.041.325 0 .043 0 .085-.014.128-.014.141-.041.269-.055.41v.029l-.082.396v.043l-.082.382c0 .014-.014.042-.014.057a4 4 0 0 1-.095.382v.042c-.041.142-.082.27-.11.397-.014.014-.014.028-.014.028q-.06.213-.123.425c-.054.142-.095.269-.15.41-.055.142-.096.284-.15.411-.055.142-.11.27-.165.41h-.013c-.055.128-.11.27-.178.397a1 1 0 0 1-.041.1c-.014.013-.014.027-.027.042a13.3 13.3 0 0 1-3.844 4.757c-.11.07-.218.156-.328.24-.027.029-.068.043-.096.071-.095.071-.191.142-.3.213l.04.085h.014l.575-.085h.013c.356-.057.712-.128 1.067-.199.096-.014.205-.042.301-.07.068-.015.123-.029.191-.043.096-.014.192-.042.288-.056.082-.029.164-.043.246-.071a25.3 25.3 0 0 0 3.966-1.36 22.1 22.1 0 0 1-8.493 7.179 21.8 21.8 0 0 0 4.664-.835c5.512-1.685 10.148-5.522 12.924-10.69a23 23 0 0 1-3.679 9.104 21.7 21.7 0 0 0 3.652-3.143c3.064-3.313 5.074-7.518 5.758-12.035.465 2.237.602 4.545.397 6.824 9.874-14.257.82-29.038-2.968-32.932-.014-.028-.028-.042-.028-.07-.013.014-.013.014-.013.028 0-.015 0-.015-.014-.029 0 .17-.014.34-.027.51a20 20 0 0 1-.137.949c-.069.311-.15.623-.233.934-.095.297-.205.609-.328.906-.123.283-.26.58-.41.864a10 10 0 0 1-.492.807c-.178.269-.37.524-.561.764-.205.255-.424.482-.643.708-.137.128-.26.241-.397.354l-.314.283a8 8 0 0 1-.766.553c-.26.17-.534.34-.807.481-.287.142-.575.269-.862.396a9 9 0 0 1-.889.298c-.3.085-.615.155-.916.212-.315.057-.63.085-.93.113-.219.015-.438.029-.657.029-.314 0-.629-.029-.93-.057a7 7 0 0 1-.93-.142 7 7 0 0 1-.916-.24h-.014c.301-.029.602-.057.903-.113a9.6 9.6 0 0 0 1.805-.51c.301-.114.588-.255.862-.397.287-.141.547-.297.82-.467.26-.184.52-.368.766-.566q.37-.297.698-.637c.232-.213.438-.453.643-.694q.307-.383.574-.765c.028-.042.055-.099.082-.141.137-.227.274-.453.397-.68a10 10 0 0 0 .738-1.77 10 10 0 0 0 .233-.92c.055-.325.11-.637.137-.948.027-.326.054-.652.054-.963 0-.227-.013-.453-.027-.68-.027-.326-.068-.637-.11-.948a11 11 0 0 0-.204-.95c-.096-.296-.192-.608-.301-.905a10 10 0 0 0-.383-.878c-.15-.283-.301-.566-.465-.835a16 16 0 0 0-.547-.78c-.206-.24-.41-.48-.63-.721-.109-.113-.232-.24-.355-.354a25 25 0 0 0-1.901-1.388 3 3 0 0 0-.274-.141c-.451-.298-.875-.453-1.3-.595" clip-rule="evenodd"/></symbol><use xlink:href="#sprite-skill6" width="56" height="56" y="416"/><view id="sprite-skill6-view" viewBox="0 416 56 56"/><symbol id="sprite-skill7" viewBox="0 0 57 56"><path d="M49.733 25.783 30.717 6.767a3.19 3.19 0 0 0-2.217-.934c-.817 0-1.633.35-2.217.934L22.2 10.85l4.783 4.783a3.2 3.2 0 0 1 1.517-.35c1.983 0 3.5 1.517 3.5 3.5a3.2 3.2 0 0 1-.35 1.517l4.667 4.667a3.2 3.2 0 0 1 1.516-.35c1.984 0 3.5 1.516 3.5 3.5s-1.516 3.5-3.5 3.5-3.5-1.517-3.5-3.5c0-.584.117-1.05.35-1.517l-4.666-4.667c-.117 0-.234.117-.35.117v12.133c1.4.467 2.333 1.75 2.333 3.267 0 1.983-1.517 3.5-3.5 3.5s-3.5-1.517-3.5-3.5c0-1.517.933-2.8 2.333-3.267v-12.25c-1.4-.466-2.333-1.75-2.333-3.266 0-.584.117-1.05.35-1.517l-4.783-4.783-13.3 13.416A3.19 3.19 0 0 0 6.333 28c0 .817.35 1.633.934 2.217l19.016 19.016c.584.584 1.4.934 2.217.934s1.633-.35 2.217-.934l19.016-19.016c.584-.584.934-1.4.934-2.217s-.35-1.633-.934-2.217"/></symbol><use xlink:href="#sprite-skill7" width="57" height="56" y="472"/><view id="sprite-skill7-view" viewBox="0 472 57 56"/><symbol id="sprite-skill8" viewBox="0 0 56 56"><path fill="var(--color-1)" fill-rule="evenodd" d="m9.855 48.654-1.52-40.45a2.465 2.465 0 0 1 2.313-2.548l26.96-1.686 2.059.697 2.677-.993 2.702-.17a2.464 2.464 0 0 1 2.62 2.461v44.073a2.465 2.465 0 0 1-2.468 2.463l-.108-.002-32.883-1.477a2.463 2.463 0 0 1-2.352-2.368" clip-rule="evenodd"/><path fill="var(--color-2)" fill-rule="evenodd" d="m42.342 3.674-4.733.294-.23 5.554a.369.369 0 0 0 .588.31l2.156-1.637 1.822 1.436a.367.367 0 0 0 .595-.301l-.196-5.655zm-3.684 18.595c-.865.674-7.324 1.132-7.324.174.138-3.657-1.499-3.817-2.41-3.817-.862 0-2.318.26-2.318 2.22 0 1.996 2.127 3.123 4.623 4.446 3.546 1.88 7.84 4.156 7.84 9.878 0 5.488-4.459 8.517-10.143 8.517-5.867 0-10.995-2.374-10.417-10.604.228-.965 7.689-.735 7.689 0-.094 3.396.68 4.395 2.636 4.395 1.502 0 2.183-.828 2.183-2.22 0-2.11-2.214-3.354-4.765-4.785-3.452-1.937-7.514-4.218-7.514-9.454 0-5.223 3.592-8.707 10.005-8.707s9.915 3.431 9.915 9.957" clip-rule="evenodd"/></symbol><use xlink:href="#sprite-skill8" width="56" height="56" y="528"/><view id="sprite-skill8-view" viewBox="0 528 56 56"/><symbol id="sprite-skill9" viewBox="0 0 57 56"><g clip-path="url(#clip0_3516_80)"><path d="M56.49 27.383c-.153-9.362-5.373-18.478-13.45-23.278C36.679.142 28.64-.925 21.4.904 10.504 3.647 1.817 13.515.713 24.763c-1.372 10.622 4 21.67 13.182 27.117 8.991 5.639 21.22 5.41 30.012-.525 7.925-5.143 12.84-14.524 12.574-23.964zm-26.441 24.46C17.324 53.102 5.018 42.32 4.674 29.557 3.71 19.193 10.54 8.944 20.294 5.516c13.678-5.487 30.48 4.647 31.89 19.316 2.21 13.182-8.763 26.6-22.135 27.012m-8.374-25.26 18.401-15.05-9.943 15.087c-2.82 0-5.639.001-8.458-.038m5.174 2.782 8.458.039L16.905 44.49z"/></g></symbol><use xlink:href="#sprite-skill9" width="57" height="56" y="584"/><view id="sprite-skill9-view" viewBox="0 584 57 56"/><symbol id="sprite-social1" viewBox="0 0 20 20"><g clip-path="url(#a)"><path d="M20 10c0-5.523-4.477-10-10-10S0 4.477 0 10c0 4.991 3.657 9.128 8.438 9.878v-6.987h-2.54V10h2.54V7.797c0-2.506 1.492-3.89 3.777-3.89 1.093 0 2.238.195 2.238.195v2.46h-1.26c-1.243 0-1.63.771-1.63 1.563V10h2.773l-.443 2.89h-2.33v6.988C16.343 19.129 20 14.991 20 10"/></g><defs><clipPath id="a"><path fill="none" d="M0 0h20v20H0z"/></clipPath></defs></symbol><use xlink:href="#sprite-social1" width="20" height="20" y="640"/><view id="sprite-social1-view" viewBox="0 640 20 20"/><symbol id="sprite-social2" viewBox="0 0 20 20"><path fill-rule="evenodd" d="M20 10c0 5.523-4.477 10-10 10S0 15.523 0 10 4.477 0 10 0s10 4.477 10 10m-4.795-1.462c.807 0 1.462.655 1.462 1.462 0 .597-.363 1.111-.842 1.345.023.14.035.28.035.433 0 2.245-2.608 4.058-5.837 4.058s-5.836-1.813-5.836-4.058c0-.152.012-.304.035-.445a1.463 1.463 0 0 1 .596-2.795c.387 0 .75.164 1.007.41 1.005-.737 2.397-1.194 3.953-1.24l.737-3.486a.3.3 0 0 1 .117-.164.3.3 0 0 1 .198-.035l2.422.515c.163-.35.514-.585.923-.585.573 0 1.041.468 1.041 1.041s-.467 1.041-1.04 1.041a1.04 1.04 0 0 1-1.042-.994l-2.163-.456-.667 3.123c1.52.058 2.9.526 3.895 1.24.257-.258.608-.41 1.006-.41M7.708 10c-.573 0-1.041.468-1.041 1.04 0 .574.468 1.042 1.04 1.042.574 0 1.042-.468 1.042-1.041S8.28 10 7.708 10m2.304 4.55c.397 0 1.754-.047 2.467-.76a.3.3 0 0 0 .024-.386.275.275 0 0 0-.386 0c-.456.444-1.404.608-2.094.608s-1.649-.164-2.093-.609a.275.275 0 0 0-.386 0 .275.275 0 0 0 0 .386c.702.702 2.07.76 2.468.76m1.24-3.51c0 .574.467 1.042 1.04 1.042.574 0 1.041-.468 1.041-1.041S12.866 10 12.293 10c-.574 0-1.041.468-1.041 1.04" clip-rule="evenodd"/></symbol><use xlink:href="#sprite-social2" width="20" height="20" y="660"/><view id="sprite-social2-view" viewBox="0 660 20 20"/><symbol id="sprite-social3" viewBox="0 0 20 20"><path d="M6.292 18.125c7.545 0 11.673-6.253 11.673-11.673q0-.266-.012-.532A8.3 8.3 0 0 0 20 3.796a8.1 8.1 0 0 1-2.355.645 4.13 4.13 0 0 0 1.804-2.27 8.3 8.3 0 0 1-2.605.996A4.108 4.108 0 0 0 9.85 6.91a11.65 11.65 0 0 1-8.456-4.284A4.11 4.11 0 0 0 2.664 8.1a4.1 4.1 0 0 1-1.86-.512v.051a4.1 4.1 0 0 0 3.293 4.023 4.1 4.1 0 0 1-1.851.07 4.11 4.11 0 0 0 3.831 2.852A8.23 8.23 0 0 1 0 16.282a11.64 11.64 0 0 0 6.292 1.843"/></symbol><use xlink:href="#sprite-social3" width="20" height="20" y="680"/><view id="sprite-social3-view" viewBox="0 680 20 20"/><symbol id="sprite-social4" viewBox="0 0 20 20"><path d="M8.24 8.39c-.57 0-1.02.5-1.02 1.11s.46 1.11 1.02 1.11c.57 0 1.02-.5 1.02-1.11.01-.61-.45-1.11-1.02-1.11m3.65 0c-.57 0-1.02.5-1.02 1.11s.46 1.11 1.02 1.11c.57 0 1.02-.5 1.02-1.11s-.45-1.11-1.02-1.11"/><path d="M16.75 0H3.35C2.22 0 1.3.92 1.3 2.06v13.52c0 1.14.92 2.06 2.05 2.06h11.34l-.53-1.85 1.28 1.19 1.21 1.12L18.8 20V2.06C18.8.92 17.88 0 16.75 0m-3.86 13.06s-.36-.43-.66-.81c1.31-.37 1.81-1.19 1.81-1.19-.41.27-.8.46-1.15.59-.5.21-.98.35-1.45.43-.96.18-1.84.13-2.59-.01-.57-.11-1.06-.27-1.47-.43-.23-.09-.48-.2-.73-.34-.03-.02-.06-.03-.09-.05-.02-.01-.03-.02-.04-.03-.18-.1-.28-.17-.28-.17s.48.8 1.75 1.18c-.3.38-.67.83-.67.83-2.21-.07-3.05-1.52-3.05-1.52 0-3.22 1.44-5.83 1.44-5.83 1.44-1.08 2.81-1.05 2.81-1.05l.1.12c-1.8.52-2.63 1.31-2.63 1.31s.22-.12.59-.29c1.07-.47 1.92-.6 2.27-.63.06-.01.11-.02.17-.02a8.152 8.152 0 0 1 5.03.94s-.79-.75-2.49-1.27l.14-.16s1.37-.03 2.81 1.05c0 0 1.44 2.61 1.44 5.83 0 0-.85 1.45-3.06 1.52"/></symbol><use xlink:href="#sprite-social4" width="20" height="20" y="700"/><view id="sprite-social4-view" viewBox="0 700 20 20"/><symbol fill="none" id="sprite-footer" viewBox="0 0 140 40"><path fill="#fff" d="M31.53 14.212c0 4.67-2.768 8.696-6.75 10.523a7.577 7.577 0 0 0-4.667-13.415c-.056-.003-.105-.003-.16-.003s-.104 0-.16.003a2.894 2.894 0 0 0-2.734 2.89v14.471a8.684 8.684 0 0 1-8.683 8.683V14.212c0-6.393 5.185-11.577 11.577-11.577S31.529 7.82 31.529 14.212"/><path fill="#fff" d="M22 16.258a2.894 2.894 0 1 0-4.094-4.092A2.894 2.894 0 0 0 22 16.258M56.426 22.82v-2.84h2.62q.76 0 1.3-.3.56-.3.86-.84.3-.56.3-1.28 0-.76-.3-1.3a1.94 1.94 0 0 0-.86-.84q-.54-.3-1.3-.3h-2.62v-2.84h2.46q1.86 0 3.18.62 1.34.62 2.04 1.76.72 1.14.72 2.74v.32q0 1.56-.72 2.72-.7 1.14-2.04 1.76-1.32.62-3.18.62zM53.546 27V12.28h3.28V27zm17.643.38q-1.4 0-2.48-.48a5.3 5.3 0 0 1-1.78-1.28 6.2 6.2 0 0 1-1.08-1.82 6.2 6.2 0 0 1-.36-2.08v-.4q0-1.1.36-2.1a5.8 5.8 0 0 1 1.08-1.82 4.9 4.9 0 0 1 1.74-1.26q1.06-.48 2.4-.48 1.76 0 2.96.8a5.13 5.13 0 0 1 1.86 2.06q.64 1.26.64 2.76v1.08h-9.7v-1.82h7.76l-1.04.84q0-.98-.28-1.68t-.84-1.06q-.54-.38-1.36-.38-.84 0-1.42.38t-.88 1.12q-.3.72-.3 1.78 0 .98.28 1.72.28.72.88 1.12t1.56.4q.88 0 1.44-.34t.76-.84h2.94a4.6 4.6 0 0 1-.94 1.96 4.8 4.8 0 0 1-1.76 1.34q-1.06.48-2.44.48m7.06-.38V16.04h2.54v4.7h-.06q0-2.32.98-3.58 1-1.26 2.88-1.26h.42v2.76h-.8q-1.32 0-2.04.72-.72.7-.72 2.04V27zm12.178.34q-2.34 0-3.66-.96t-1.4-2.7h2.84q.08.52.62.94.56.4 1.66.4.84 0 1.38-.28.56-.3.56-.84 0-.48-.42-.76-.42-.3-1.5-.42l-.86-.08q-1.98-.2-2.98-1.1-.98-.9-.98-2.3 0-1.16.58-1.94t1.6-1.18q1.04-.4 2.36-.4 2.121 0 3.42.94 1.3.92 1.36 2.68h-2.84q-.08-.54-.56-.9-.48-.38-1.42-.38-.74 0-1.18.28t-.44.76q0 .46.38.7t1.24.34l.86.08q2.02.22 3.14 1.12t1.12 2.42q0 1.1-.6 1.92-.6.8-1.7 1.24-1.1.42-2.58.42m11.894.04q-1.44 0-2.56-.44a5.7 5.7 0 0 1-1.9-1.24 5.4 5.4 0 0 1-1.16-1.78 5.8 5.8 0 0 1-.4-2.14v-.46q0-1.14.4-2.16.42-1.04 1.2-1.82a5.7 5.7 0 0 1 1.92-1.22q1.12-.46 2.5-.46 1.419 0 2.52.46 1.12.44 1.9 1.22t1.2 1.82q.42 1.02.42 2.16v.46q0 1.12-.4 2.14a5.3 5.3 0 0 1-1.18 1.78q-.76.78-1.88 1.24-1.12.44-2.58.44m0-2.7q.939 0 1.56-.4.62-.4.94-1.12a3.7 3.7 0 0 0 .34-1.6q0-.94-.34-1.64a2.73 2.73 0 0 0-.98-1.14q-.62-.42-1.52-.42-.88 0-1.52.42a2.7 2.7 0 0 0-.98 1.14q-.32.7-.32 1.64 0 .88.32 1.6t.96 1.12 1.54.4m7.873 2.32V16.04h2.54v4.7h-.18q0-1.68.42-2.8.44-1.12 1.32-1.68t2.14-.56h.14q1.92 0 2.92 1.26 1.02 1.24 1.02 3.78V27h-3.2v-6.44q0-.88-.52-1.44t-1.4-.56q-.9 0-1.46.58-.54.56-.54 1.48V27zm19.267 0v-3.24h-.54v-3.52q0-.84-.4-1.26t-1.28-.42q-.44 0-1.16.02t-1.48.06-1.38.08v-2.7q.46-.04 1.08-.08t1.28-.06 1.24-.02q1.68 0 2.82.48 1.16.48 1.76 1.46.6.96.6 2.48V27zm-3.5.28q-1.18 0-2.08-.42a3.27 3.27 0 0 1-1.38-1.2q-.5-.8-.5-1.9 0-1.2.62-1.96.62-.78 1.74-1.14 1.12-.38 2.58-.38h2.34v1.78h-2.36q-.84 0-1.3.42-.44.4-.44 1.1 0 .66.44 1.08.46.4 1.3.4.54 0 .96-.18a1.63 1.63 0 0 0 .72-.66q.28-.46.32-1.28l.76.8q-.1 1.14-.56 1.92-.44.78-1.24 1.2-.78.42-1.92.42m8.495-.28V12.4h3.22V27zm-1.3-12.24V12.4h4.52v2.36z"/></symbol><use xlink:href="#sprite-footer" width="140" height="40" y="720"/><view id="sprite-footer-view" viewBox="0 720 140 40"/></svg>